<svg width="12" height="12" viewBox="0 0 12 12" fill="none" xmlns="http://www.w3.org/2000/svg">
<path d="M6.5 1.75C6.5 1.55109 6.42098 1.36032 6.28033 1.21967C6.13968 1.07902 5.94891 1 5.75 1C5.55109 1 5.36032 1.07902 5.21967 1.21967C5.07902 1.36032 5 1.55109 5 1.75V5H1.75C1.55109 5 1.36032 5.07902 1.21967 5.21967C1.07902 5.36032 1 5.55109 1 5.75C1 5.94891 1.07902 6.13968 1.21967 6.28033C1.36032 6.42098 1.55109 6.5 1.75 6.5H5V9.75C5 9.94891 5.07902 10.1397 5.21967 10.2803C5.36032 10.421 5.55109 10.5 5.75 10.5C5.94891 10.5 6.13968 10.421 6.28033 10.2803C6.42098 10.1397 6.5 9.94891 6.5 9.75V6.5H9.75C9.94891 6.5 10.1397 6.42098 10.2803 6.28033C10.421 6.13968 10.5 5.94891 10.5 5.75C10.5 5.55109 10.421 5.36032 10.2803 5.21967C10.1397 5.07902 9.94891 5 9.75 5H6.5V1.75Z" fill="white"/>
</svg>
