<svg width="24" height="24" viewBox="0 0 24 24" fill="none" xmlns="http://www.w3.org/2000/svg">
<g clip-path="url(#clip0_146_56)">
<path d="M6.80001 10.6C6.79949 9.4157 7.16788 8.26063 7.85399 7.29531C8.5401 6.32999 9.50986 5.60236 10.6285 5.21351C10.5852 4.9421 10.6013 4.66453 10.6756 4.39994C10.75 4.13535 10.8809 3.89004 11.0593 3.68095C11.2376 3.47185 11.4592 3.30394 11.7088 3.1888C11.9584 3.07366 12.2299 3.01403 12.5048 3.01403C12.7796 3.01403 13.0512 3.07366 13.3007 3.1888C13.5503 3.30394 13.7719 3.47185 13.9503 3.68095C14.1286 3.89004 14.2595 4.13535 14.3339 4.39994C14.4083 4.66453 14.4243 4.9421 14.381 5.21351C15.4979 5.60395 16.4656 6.33227 17.1499 7.29745C17.8342 8.26264 18.2012 9.41685 18.2 10.6V16.3L21.05 18.2V19.15H3.95001V18.2L6.80001 16.3V10.6ZM14.4 20.1C14.4 20.6039 14.1998 21.0872 13.8435 21.4435C13.4872 21.7998 13.0039 22 12.5 22C11.9961 22 11.5128 21.7998 11.1565 21.4435C10.8002 21.0872 10.6 20.6039 10.6 20.1H14.4Z" fill="#292929"/>
</g>
<defs>
<clipPath id="clip0_146_56">
<rect width="19" height="19" fill="white" transform="translate(3 3)"/>
</clipPath>
</defs>
</svg>
