<svg width="28" height="28" viewBox="0 0 28 28" fill="none" xmlns="http://www.w3.org/2000/svg">
<g clip-path="url(#clip0_78_1678)">
<path d="M18.6667 19.8333V22.1667H2.33334V19.8333C2.33334 19.8333 2.33334 15.1667 10.5 15.1667C18.6667 15.1667 18.6667 19.8333 18.6667 19.8333ZM14.5833 8.75C14.5833 7.94239 14.3439 7.15292 13.8952 6.48142C13.4465 5.80992 12.8088 5.28655 12.0626 4.97749C11.3165 4.66844 10.4955 4.58757 9.70339 4.74513C8.9113 4.90269 8.18372 5.29159 7.61266 5.86265C7.04159 6.43371 6.65269 7.16129 6.49514 7.95338C6.33758 8.74547 6.41844 9.56649 6.7275 10.3126C7.03656 11.0588 7.55993 11.6965 8.23143 12.1452C8.90293 12.5939 9.6924 12.8333 10.5 12.8333C11.583 12.8333 12.6216 12.4031 13.3874 11.6374C14.1531 10.8716 14.5833 9.83297 14.5833 8.75ZM18.5967 15.1667C19.3139 15.7217 19.9007 16.4272 20.316 17.2334C20.7312 18.0397 20.9647 18.9271 21 19.8333V22.1667H25.6667V19.8333C25.6667 19.8333 25.6667 15.5983 18.5967 15.1667ZM17.5 4.66667C16.6971 4.66293 15.9119 4.90296 15.2483 5.355C15.957 6.34519 16.3381 7.53234 16.3381 8.75C16.3381 9.96767 15.957 11.1548 15.2483 12.145C15.9119 12.597 16.6971 12.8371 17.5 12.8333C18.583 12.8333 19.6216 12.4031 20.3874 11.6374C21.1531 10.8716 21.5833 9.83297 21.5833 8.75C21.5833 7.66703 21.1531 6.62842 20.3874 5.86265C19.6216 5.09688 18.583 4.66667 17.5 4.66667Z" fill="white"/>
<path d="M22.1667 25.6667C25.3883 25.6667 28 23.055 28 19.8333C28 16.6117 25.3883 14 22.1667 14C18.945 14 16.3333 16.6117 16.3333 19.8333C16.3333 23.055 18.945 25.6667 22.1667 25.6667Z" fill="#292929"/>
<path d="M22.1667 17.2407V22.4259V17.2407ZM24.7593 19.8333H19.5741H24.7593Z" fill="#292929"/>
<path d="M22.1667 17.2407V22.4259M24.7593 19.8333H19.5741" stroke="white" stroke-width="1.2" stroke-linecap="square" stroke-linejoin="round"/>
</g>
<defs>
<clipPath id="clip0_78_1678">
<rect width="28" height="28" fill="white"/>
</clipPath>
</defs>
</svg>
